<?xml version="1.0" encoding="utf-8"?>
<!-- Generator: Adobe Illustrator 16.0.0, SVG Export Plug-In . SVG Version: 6.00 Build 0)  -->
<!DOCTYPE svg PUBLIC "-//W3C//DTD SVG 1.1//EN" "http://www.w3.org/Graphics/SVG/1.1/DTD/svg11.dtd">
<svg version="1.1" id="Layer_1" xmlns="http://www.w3.org/2000/svg" xmlns:xlink="http://www.w3.org/1999/xlink" x="0px" y="0px"
	 width="50px" height="50px" viewBox="0 0 50 50" enable-background="new 0 0 50 50" xml:space="preserve">
<path d="M33.715,15.499l-2.092-1.86v-0.643H15.695v21.506l2.682,2.502h15.928V15.498L33.715,15.499L33.715,15.499z M33.572,15.906
	v20.33H18.777v-0.094l-0.098,0.002l-0.302-0.295l-0.1-0.1l-0.1-0.098l-0.967-0.947l-0.102-0.102l-0.102-0.101h1.372h0.4h12.847
	V15.899v-0.4v-1.325l1.49,1.325l0.449,0.4L33.572,15.906z"/>
<rect x="17" y="14.792" fill="#FFFFFF" stroke="#000000" stroke-miterlimit="10" width="12.833" height="4.75"/>
<text transform="matrix(1 0 0 1 18.9165 18.5)" font-family="'MyriadPro-Regular'" font-size="4">Rules</text>
</svg>
