<?xml version="1.0" encoding="utf-8"?>
<!-- Generator: Adobe Illustrator 16.0.0, SVG Export Plug-In . SVG Version: 6.00 Build 0)  -->
<!DOCTYPE svg PUBLIC "-//W3C//DTD SVG 1.1//EN" "http://www.w3.org/Graphics/SVG/1.1/DTD/svg11.dtd">
<svg version="1.1" xmlns="http://www.w3.org/2000/svg" xmlns:xlink="http://www.w3.org/1999/xlink" x="0px" y="0px" width="42.458px" height="48.681px" viewBox="29.438 26.312 42.458 48.681" enable-background="new 29.438 26.312 42.458 48.681" xml:space="preserve"><path d="M71.896,39.973c-0.002-0.206-0.03-0.408-0.084-0.602c-0.014-0.05-0.041-0.093-0.058-0.142
	c-0.049-0.143-0.101-0.284-0.175-0.415c-0.037-0.064-0.09-0.115-0.132-0.177c-0.074-0.104-0.144-0.21-0.234-0.301
	c-0.06-0.058-0.132-0.103-0.196-0.155c-0.084-0.068-0.162-0.146-0.256-0.203L51.869,26.644c-0.741-0.444-1.665-0.444-2.406,0
	L30.572,37.979c-0.095,0.057-0.171,0.135-0.255,0.203c-0.065,0.052-0.139,0.098-0.198,0.155c-0.09,0.091-0.16,0.197-0.233,0.301
	c-0.043,0.06-0.096,0.112-0.133,0.177c-0.074,0.128-0.124,0.268-0.172,0.408c-0.018,0.051-0.047,0.097-0.061,0.148
	c-0.053,0.193-0.082,0.396-0.082,0.602c0,0.001,0,0.003,0,0.003v0.007V60.43c0,0.793,0.401,1.532,1.067,1.963l18.892,12.226
	c0.025,0.017,0.056,0.021,0.082,0.036s0.045,0.039,0.071,0.054c0.098,0.053,0.203,0.08,0.305,0.118
	c0.067,0.025,0.129,0.06,0.197,0.078c0.203,0.055,0.409,0.088,0.616,0.088s0.413-0.033,0.615-0.088
	c0.068-0.02,0.13-0.053,0.197-0.078c0.102-0.038,0.207-0.065,0.304-0.118c0.026-0.015,0.046-0.038,0.071-0.054
	s0.057-0.021,0.082-0.036l18.892-12.226c0.666-0.431,1.067-1.17,1.067-1.963V39.982l-0.002-0.004
	C71.895,39.979,71.896,39.974,71.896,39.973z M50.667,31.372l14.382,8.631l-2.839,1.736l-11.542,7.06l-11.543-7.06l-2.839-1.736
	L50.667,31.372z M34.112,44.152l14.217,8.698v15.508l-14.217-9.199V44.152z M67.221,59.158l-14.218,9.199V52.85l14.218-8.697V59.158
	z"/>
</svg>
