<?xml version="1.0" encoding="utf-8"?>
<!-- Generator: Adobe Illustrator 16.0.4, SVG Export Plug-In . SVG Version: 6.00 Build 0)  -->
<!DOCTYPE svg PUBLIC "-//W3C//DTD SVG 1.1//EN" "http://www.w3.org/Graphics/SVG/1.1/DTD/svg11.dtd">
<svg version="1.1" xmlns="http://www.w3.org/2000/svg" xmlns:xlink="http://www.w3.org/1999/xlink" x="0px" y="0px" viewBox="0 0 23.303 22.953">
	<g>
		<polygon points="18.123,15.807 18.123,18.367 16.752,18.367 20.095,21.709 18.855,22.953 23.303,22.953 23.303,18.502 
			22.06,19.744 	"/>
		<polygon points="18.855,0 20.095,1.243 16.754,4.584 18.123,4.584 18.123,7.146 22.06,3.21 23.303,4.452 23.303,0 	"/>
		<polygon points="5.177,18.367 5.177,15.811 1.243,19.743 0,18.502 0,22.953 4.448,22.953 3.208,21.709 6.551,18.367 	"/>
		<polygon points="5.177,7.143 5.177,4.584 6.549,4.584 3.208,1.243 4.448,0 0,0 0,4.451 1.243,3.209 	"/>
		<rect x="6.67" y="6.171" width="9.961" height="10.606"/>
	</g>
</svg>
