<?xml version="1.0" encoding="utf-8"?>
<!-- Generator: Adobe Illustrator 16.0.4, SVG Export Plug-In . SVG Version: 6.00 Build 0)  -->
<!DOCTYPE svg PUBLIC "-//W3C//DTD SVG 1.1//EN" "http://www.w3.org/Graphics/SVG/1.1/DTD/svg11.dtd">
<svg version="1.1" class="icon" xmlns="http://www.w3.org/2000/svg" xmlns:xlink="http://www.w3.org/1999/xlink" x="0px" y="0px" viewBox="0 0 100 100">
	<path d="M50,0C22.386,0,0,22.386,0,50s22.386,50,50,50s50-22.386,50-50S77.614,0,50,0z M58.281,14.031
		c0.194-0.009,0.393-0.011,0.594,0c2.707-0.089,5.062,1.953,5.438,4.594c1.209,5.071-4.177,10.154-9.125,8.125
		C49.279,24.007,52.256,14.324,58.281,14.031z M55.844,36.094c3.838-0.244,4.508,4.222,3.312,8.75
		c-2.334,10.403-5.967,20.482-7.938,30.969c0.952,4.141,6.173-0.609,8.406-2.125c1.899-1.51,2.229,0.383,2.875,1.969
		c-4.739,3.32-9.503,6.701-14.781,9.375c-4.959,3.008-9.018-1.668-7.781-6.875c2.046-9.715,4.739-19.283,6.938-28.969
		c0.687-5.234-6.201,0.094-8.25,1.312c-1.652,2.076-2.436,0.561-3.125-1.312c5.492-4.011,11.091-8.934,17.156-12.125
		C53.895,36.447,54.958,36.15,55.844,36.094z"/>
</svg>
