<?xml version="1.0" encoding="utf-8"?>
<!-- Generator: Adobe Illustrator 16.0.0, SVG Export Plug-In . SVG Version: 6.00 Build 0)  -->
<!DOCTYPE svg PUBLIC "-//W3C//DTD SVG 1.1//EN" "http://www.w3.org/Graphics/SVG/1.1/DTD/svg11.dtd">
<svg version="1.1" class="icon" xmlns="http://www.w3.org/2000/svg" xmlns:xlink="http://www.w3.org/1999/xlink" x="0px" y="0px"
		 viewBox="26 24 45 59">
	<g>
		<path d="M68.63,29.562h-5.896v-3.204c0-1.303-1.063-2.358-2.373-2.358c-1.309,0-2.371,1.056-2.371,2.358v3.204h-3.16v-3.204
			c0-1.303-1.06-2.358-2.372-2.358c-1.311,0-2.371,1.056-2.371,2.358v3.204h-3.161v-3.204c0-1.303-1.061-2.358-2.37-2.358
			c-1.311,0-2.372,1.056-2.372,2.358v3.204h-3.162v-3.204c0-1.303-1.061-2.358-2.371-2.358c-1.31,0-2.369,1.056-2.369,2.358v3.204
			h-5.899c-1.31,0-2.37,1.056-2.37,2.358v48.722c0,1.303,1.061,2.358,2.37,2.358h40.246c1.311,0,2.371-1.056,2.371-2.358V31.92
			C71.001,30.618,69.94,29.562,68.63,29.562z M66.26,78.284H30.755V34.279h3.527v0.786c0,1.304,1.06,2.359,2.369,2.359
			c1.311,0,2.371-1.056,2.371-2.359v-0.786h3.162v0.786c0,1.304,1.062,2.359,2.372,2.359c1.31,0,2.37-1.056,2.37-2.359v-0.786h3.162
			v0.786c0,1.304,1.059,2.359,2.369,2.359c1.313,0,2.372-1.056,2.372-2.359v-0.786h3.16v0.786c0,1.304,1.064,2.359,2.373,2.359
			c1.311,0,2.371-1.056,2.371-2.359v-0.786h3.525V78.284L66.26,78.284z"/>
		<path d="M60.361,44.106H36.65c-1.31,0-2.369,1.056-2.369,2.359c0,1.302,1.06,2.358,2.369,2.358h23.711
			c1.311,0,2.373-1.056,2.373-2.358C62.734,45.162,61.672,44.106,60.361,44.106z"/>
		<path d="M60.361,51.968H36.65c-1.31,0-2.369,1.058-2.369,2.359c0,1.301,1.06,2.357,2.369,2.357h23.711
			c1.311,0,2.373-1.057,2.373-2.357C62.734,53.025,61.672,51.968,60.361,51.968z"/>
		<path d="M60.361,59.83H36.65c-1.31,0-2.369,1.054-2.369,2.357c0,1.301,1.06,2.358,2.369,2.358h23.711
			c1.311,0,2.373-1.058,2.373-2.358C62.734,60.884,61.672,59.83,60.361,59.83z"/>
		<path d="M48.507,67.69H36.65c-1.31,0-2.369,1.056-2.369,2.359c0,1.302,1.06,2.358,2.369,2.358h11.856
			c1.31,0,2.371-1.059,2.371-2.358C50.878,68.746,49.816,67.69,48.507,67.69z"/>
	</g>
</svg>
