<?xml version="1.0" encoding="utf-8"?>
<!-- Generator: Adobe Illustrator 16.0.0, SVG Export Plug-In . SVG Version: 6.00 Build 0)  -->
<!DOCTYPE svg PUBLIC "-//W3C//DTD SVG 1.1//EN" "http://www.w3.org/Graphics/SVG/1.1/DTD/svg11.dtd">
<svg class="icon" version="1.1" xmlns="http://www.w3.org/2000/svg" xmlns:xlink="http://www.w3.org/1999/xlink" x="0px" y="0px" viewBox="3.5 10 50 45">
	<g>
		<path d="M43.35,34.266c-0.379,0.512-0.826,0.95-1.307,1.303c-1.105,1.48-2.686,2.248-4.087,1.787
			c-1.937-0.633-2.785-3.342-1.897-6.053c0.278-0.851,0.705-1.584,1.205-2.192l3.276-7.695l0,0l1.351-3.173
			c-4.061-4.125-10.375-6.628-18.94-5.261C4.16,15.98-1.636,38.968,10.557,49.762c11.411,10.103,17.396,3.221,21.721-4.421
			c0.49-0.864,1.65-1.371,2.637-1.266c3.146,0.334,9.589-0.019,11.821-7.906c0.625-2.21,0.767-4.638,0.437-7.069L43.35,34.266z
			 M15.255,24.375c2.153,0,3.898,1.745,3.898,3.897c0,2.153-1.745,3.898-3.898,3.898c-2.153,0-3.898-1.745-3.898-3.898
			C11.357,26.12,13.102,24.375,15.255,24.375z M13.006,42.215c-2.152,0-3.898-1.745-3.898-3.896c0-2.152,1.745-3.898,3.898-3.898
			c2.153,0,3.898,1.745,3.898,3.898C16.904,40.47,15.159,42.215,13.006,42.215z M20.652,50.011c-2.153,0-3.898-1.745-3.898-3.896
			c0-2.153,1.745-3.898,3.898-3.898c2.153,0,3.898,1.745,3.898,3.898C24.55,48.266,22.805,50.011,20.652,50.011z M23.8,25.425
			c-2.153,0-3.898-1.745-3.898-3.898c0-2.152,1.745-3.897,3.898-3.897c2.152,0,3.898,1.745,3.898,3.897
			C27.698,23.68,25.953,25.425,23.8,25.425z"/>
		<path d="M49.215,11.008c-2.523,0.163-4.416,2.606-4.416,2.606l0.021,0.011c-0.106,0.104-0.211,0.215-0.309,0.332
			c-1.717,2.047-1.449,5.097,0.598,6.814s5.097,1.45,6.813-0.597c0.622-0.741,0.979-1.616,1.091-2.511l0.002,0.001
			c0.93-4.397-0.979-7.365-0.979-7.365S51.738,10.845,49.215,11.008z"/>
		<path d="M38.072,35.626c0.951,0.554,2.531-0.092,3.529-1.44l4.652-6.285c-2.167-0.498-4.109-1.841-5.359-2.89
			c-0.115-0.098-0.226-0.192-0.33-0.284l-3.022,7.102C36.885,33.372,37.122,35.073,38.072,35.626z"/>
		<path d="M44.648,21.32c-0.768-0.644-1.314-1.452-1.641-2.33l-1.389,3.263c1.227,1.221,3.917,3.345,6.367,3.31l2.537-3.426
			C48.629,22.977,46.339,22.739,44.648,21.32z"/>
	</g>
</svg>
